Land_normalized_precision_landing03_filtered_grf
version=1
nRows=30
nColumns=37
inDegrees=yes
endheader
time		1_ground_force_vx		1_ground_force_vy		1_ground_force_vz		1_ground_force_px		1_ground_force_py		1_ground_force_pz		1_ground_torque_x		1_ground_torque_y		1_ground_torque_z		2_ground_force_vx		2_ground_force_vy		2_ground_force_vz		2_ground_force_px		2_ground_force_py		2_ground_force_pz		2_ground_torque_x		2_ground_torque_y		2_ground_torque_z		3_ground_force_vx		3_ground_force_vy		3_ground_force_vz		3_ground_force_px		3_ground_force_py		3_ground_force_pz		3_ground_torque_x		3_ground_torque_y		3_ground_torque_z		4_ground_force_vx		4_ground_force_vy		4_ground_force_vz		4_ground_force_px		4_ground_force_py		4_ground_force_pz		4_ground_torque_x		4_ground_torque_y		4_ground_torque_z		
1.057000		4.855213		-45.861550		-25.141583		0.147119		0.000000		0.296540		0.016907		-0.159699		-0.087548		-6.893915		-35.143738		-9.734040		-0.163180		0.000000		0.311276		-0.307032		-1.565183		-0.433521		10.832213		-1.922731		-5.214272		0.381139		1.275678		1.884504		-0.005248		0.000932		0.002526		-2.958530		-0.660832		5.052525		-0.351472		1.268446		1.872541		0.012831		0.002866		-0.021913		
1.059652		6.135942		-62.423708		-36.677290		0.145667		0.000000		0.289986		0.010013		-0.101798		-0.059775		-9.089660		-56.745791		-21.585557		-0.174665		0.000000		0.306682		-0.480238		-2.998493		-1.140792		10.914735		-1.849683		-5.187378		0.381134		1.275680		1.884558		-0.005855		0.000992		0.002783		-2.917204		-0.776861		4.984252		-0.351481		1.268479		1.872576		0.011928		0.003177		-0.020381		
1.062303		5.584381		-61.698568		-39.635500		0.144244		0.000000		0.281555		-0.003648		0.040479		0.026134		-8.766224		-66.993972		-31.169262		-0.184906		0.000000		0.302590		-0.501728		-3.834875		-1.784394		10.945787		-1.794796		-5.140769		0.381127		1.275679		1.884612		-0.006730		0.001104		0.003161		-2.935425		-0.876943		4.951861		-0.351490		1.268511		1.872611		0.011355		0.003392		-0.019156		
1.064955		2.214998		-32.072382		-27.412752		0.141536		0.000000		0.251223		-0.017431		0.253435		0.217375		-4.441257		-54.345369		-33.173114		-0.202714		0.000000		0.295723		-0.265905		-3.253875		-1.986239		10.918340		-1.759312		-5.097847		0.381122		1.275677		1.884668		-0.007321		0.001179		0.003419		-3.005023		-0.943725		4.962679		-0.351501		1.268534		1.872647		0.011377		0.003573		-0.018790		
1.067606		-4.636340		35.920481		5.372065		0.160545		0.000000		0.347765		-0.079937		0.616298		0.087969		4.911314		-7.956948		-21.715170		-0.277393		0.000000		0.283149		-0.036140		-0.022951		0.259603		10.836746		-1.738985		-5.083815		0.381116		1.275672		1.884724		-0.007078		0.001136		0.003320		-3.110647		-0.964253		5.012515		-0.351513		1.268542		1.872686		0.012133		0.003761		-0.019551		
1.070258		-14.922398		145.316789		60.197553		0.148136		0.000000		0.309758		-0.111761		1.087908		0.450311		19.240477		78.007425		7.739475		-0.133276		0.000000		0.307807		0.550330		2.248603		0.235897		10.717428		-1.725085		-5.115540		0.381109		1.275665		1.884781		-0.005689		0.000916		0.002715		-3.235864		-0.935044		5.084402		-0.351527		1.268531		1.872727		0.013556		0.003917		-0.021300		
1.072909		-27.754633		290.688993		133.065298		0.146214		0.000000		0.302467		-0.151702		1.588744		0.727220		37.142603		201.407547		56.567654		-0.154472		0.000000		0.304670		1.835481		9.954737		2.796810		10.583933		-1.707476		-5.195016		0.381103		1.275658		1.884837		-0.003239		0.000523		0.001589		-3.367243		-0.864096		5.153035		-0.351542		1.268503		1.872770		0.015402		0.003952		-0.023571		
1.075561		-41.509444		458.253196		214.089424		0.145184		0.000000		0.299450		-0.196263		2.166663		1.012235		55.906167		350.823010		121.603853		-0.161924		0.000000		0.301606		3.089538		19.388175		6.720671		10.461837		-1.678337		-5.308744		0.381097		1.275650		1.884892		-0.000222		0.000036		0.000113		-3.492996		-0.769291		5.191780		-0.351560		1.268461		1.872817		0.017316		0.003814		-0.025736		
1.078212		-54.241528		628.536124		288.766704		0.144402		0.000000		0.298201		-0.248508		2.879666		1.322989		72.004369		506.517659		194.386975		-0.165041		0.000000		0.298759		4.221016		29.694277		11.396175		10.374041		-1.635234		-5.431304		0.381088		1.275643		1.884945		0.002610		-0.000412		-0.001367		-3.600705		-0.673619		5.181020		-0.351582		1.268411		1.872867		0.018905		0.003537		-0.027202		
1.080864		-64.481783		782.801912		342.171695		0.143758		0.000000		0.298185		-0.316821		3.846309		1.681178		82.236996		646.009115		262.518550		-0.165538		0.000000		0.295839		5.029080		39.506885		16.054576		10.336218		-1.581530		-5.533809		0.381079		1.275636		1.884996		0.004548		-0.000695		-0.002435		-3.678132		-0.597321		5.114611		-0.351608		1.268360		1.872923		0.019845		0.003223		-0.027595		
1.083515		-71.926279		909.127233		363.851741		0.143282		0.000000		0.299265		-0.412854		5.218389		2.088459		84.856598		751.703107		312.771647		-0.163486		0.000000		0.292816		5.357467		47.459343		19.747074		10.355052		-1.523681		-5.592260		0.381066		1.275629		1.885040		0.005149		-0.000758		-0.002781		-3.715842		-0.552308		5.000067		-0.351639		1.268314		1.872983		0.019935		0.002963		-0.026824		
1.086167		-77.604307		1004.790565		351.687939		0.143050		0.000000		0.301267		-0.547952		7.094809		2.482576		80.274826		817.166275		334.633823		-0.158424		0.000000		0.289989		5.152944		52.455202		21.480649		10.427804		-1.468300		-5.593060		0.381051		1.275623		1.885079		0.004304		-0.000606		-0.002309		-3.710257		-0.541086		4.856384		-0.351675		1.268276		1.873047		0.019162		0.002794		-0.025082		
1.088818		-83.225604		1075.739376		314.001024		0.143077		0.000000		0.303846		-0.727867		9.407864		2.745158		71.115617		850.267813		324.627006		-0.150116		0.000000		0.288074		4.502262		53.826962		20.551416		10.542402		-1.420131		-5.537932		0.381035		1.275616		1.885111		0.002249		-0.000303		-0.001181		-3.666167		-0.558475		4.709204		-0.351715		1.268248		1.873112		0.017726		0.002700		-0.022769		
1.091470		-89.980764		1132.066233		266.070239		0.143303		0.000000		0.306570		-0.945829		11.899523		2.796544		61.142066		867.840726		286.873808		-0.139411		0.000000		0.288123		3.608057		51.210369		16.928766		10.681671		-1.382193		-5.441846		0.381019		1.275610		1.885134		-0.000567		0.000074		0.000289		-3.594032		-0.597258		4.582670		-0.351755		1.268233		1.873171		0.015924		0.002646		-0.020306		
1.094121		-97.791936		1184.189287		225.514918		0.143543		0.000000		0.308922		-1.175780		14.237479		2.711014		54.391258		889.179012		232.187714		-0.129103		0.000000		0.291009		2.744959		44.868004		11.720730		10.825782		-1.356753		-5.329480		0.381005		1.275605		1.885149		-0.003595		0.000450		0.001769		-3.507466		-0.651789		4.494106		-0.351791		1.268228		1.873221		0.014036		0.002608		-0.017985		
1.096773		-105.373763		1239.407460		205.963228		0.143521		0.000000		0.310395		-1.387045		16.314238		2.710937		54.085745		929.012611		175.401793		-0.122928		0.000000		0.296489		2.129803		36.583774		6.913324		10.956090		-1.345555		-5.228585		0.380992		1.275600		1.885157		-0.006345		0.000780		0.003028		-3.420772		-0.718776		4.449356		-0.351821		1.268235		1.873259		0.012213		0.002566		-0.015885		
1.099424		-111.143252		1300.082511		212.869774		0.143049		0.000000		0.310759		-1.565603		18.313457		2.998598		61.670297		992.885418		130.832252		-0.122456		0.000000		0.303035		1.829464		29.457973		3.883360		11.059042		-1.349757		-5.161796		0.380980		1.275598		1.885160		-0.008516		0.001039		0.003975		-3.346120		-0.795815		4.443313		-0.351840		1.268251		1.873280		0.010482		0.002493		-0.013919		
1.102076		-114.023130		1364.009543		243.043513		0.142128		0.000000		0.310182		-1.714991		20.515951		3.655733		76.098608		1076.353541		109.118074		-0.125976		0.000000		0.308748		1.853360		26.215991		2.657889		11.126436		-1.368142		-5.141796		0.380972		1.275598		1.885159		-0.009998		0.001229		0.004620		-3.292021		-0.878613		4.463386		-0.351849		1.268278		1.873284		0.008809		0.002351		-0.011942		
1.104727		-113.684587		1425.818160		286.779057		0.140903		0.000000		0.309138		-1.839295		23.069124		4.640342		93.589945		1167.002722		114.731555		-0.130627		0.000000		0.312379		2.228714		27.788871		2.732146		11.153382		-1.394392		-5.168818		0.380965		1.275599		1.885157		-0.010814		0.001352		0.005012		-3.262244		-0.959202		4.494513		-0.351849		1.268311		1.873272		0.007177		0.002110		-0.009888		
1.107379		-110.269685		1479.122512		332.397057		0.139567		0.000000		0.308137		-1.928580		25.870355		5.814029		108.647199		1249.446509		145.370991		-0.134457		0.000000		0.313537		2.911352		33.478834		3.896061		11.136918		-1.417793		-5.232781		0.380959		1.275601		1.885153		-0.011014		0.001402		0.005175		-3.255869		-1.026167		4.524767		-0.351843		1.268348		1.873246		0.005632		0.001775		-0.007827		
1.110030		-104.078824		1518.352767		370.189423		0.138278		0.000000		0.307517		-1.965236		28.670217		6.990148		115.808318		1310.308131		193.469718		-0.136618		0.000000		0.312329		3.690364		41.754880		6.165746		11.077825		-1.427972		-5.317953		0.380956		1.275603		1.885149		-0.010620		0.001369		0.005098		-3.269051		-1.066067		4.547865		-0.351837		1.268383		1.873213		0.004303		0.001403		-0.005987		
1.112682		-95.636696		1539.945038		394.429323		0.137104		0.000000		0.307324		-1.935360		31.164938		7.982482		111.484443		1341.787096		248.143692		-0.136901		0.000000		0.309085		4.215242		50.740293		9.386204		10.985315		-1.420783		-5.405276		0.380956		1.275606		1.885146		-0.009682		0.001252		0.004764		-3.297203		-1.066387		4.562228		-0.351831		1.268411		1.873177		0.003415		0.001105		-0.004726		
1.115333		-85.884144		1543.302322		403.998769		0.136016		0.000000		0.307304		-1.840965		33.082892		8.660329		95.632217		1343.889214		298.108924		-0.135431		0.000000		0.304323		4.171760		58.636468		13.009107		10.879824		-1.402087		-5.474521		0.380960		1.275608		1.885140		-0.008416		0.001085		0.004234		-3.336239		-1.020660		4.568859		-0.351830		1.268425		1.873145		0.003216		0.000984		-0.004404		
1.117985		-75.997741		1530.157490		400.959662		0.134928		0.000000		0.307049		-1.701080		34.250114		8.974835		71.654401		1322.690143		334.603308		-0.132508		0.000000		0.298754		3.472669		64.105041		16.216929		10.788621		-1.385782		-5.508140		0.380966		1.275610		1.885130		-0.007222		0.000928		0.003687		-3.382548		-0.930480		4.568868		-0.351833		1.268423		1.873120		0.003893		0.001071		-0.005258		
1.120636		-67.033277		1503.931717		389.134684		0.133749		0.000000		0.306176		-1.543401		34.627650		8.959706		45.476158		1287.929635		352.794423		-0.128668		0.000000		0.293341		2.346653		66.469189		18.207752		10.738147		-1.389039		-5.495464		0.380975		1.275612		1.885116		-0.006620		0.000856		0.003387		-3.431997		-0.806283		4.562090		-0.351839		1.268408		1.873104		0.005480		0.001287		-0.007285		
1.123288		-59.518220		1469.150012		372.907952		0.132444		0.000000		0.304543		-1.391810		34.355768		8.720359		23.635398		1250.039412		352.785025		-0.124759		0.000000		0.289133		1.245653		65.881305		18.592966		10.742127		-1.424062		-5.437912		0.380986		1.275616		1.885096		-0.007041		0.000933		0.003564		-3.479791		-0.667097		4.546980		-0.351845		1.268381		1.873094		0.007789		0.001492		-0.010177		
1.125939		-53.455737		1430.119878		355.829231		0.131077		0.000000		0.302347		-1.257636		33.646010		8.371488		11.016386		1216.808953		338.221426		-0.121752		0.000000		0.286898		0.571120		63.077702		17.533001		10.796110		-1.492656		-5.348288		0.380999		1.275619		1.885070		-0.008629		0.001193		0.004275		-3.520946		-0.535746		4.521823		-0.351845		1.268350		1.873088		0.010489		0.001596		-0.013470		
1.128591		-48.643645		1390.346342		340.026151		0.129827		0.000000		0.300078		-1.143470		32.682929		7.993011		9.481826		1192.073463		314.699867		-0.120401		0.000000		0.286782		0.469829		59.075855		15.595957		10.878597		-1.585285		-5.248133		0.381012		1.275622		1.885039		-0.011130		0.001622		0.005369		-3.550412		-0.433554		4.487322		-0.351841		1.268322		1.873082		0.013218		0.001613		-0.016705		
1.131242		-44.954350		1352.052211		326.047845		0.128907		0.000000		0.298297		-1.050164		31.584731		7.616676		17.252859		1175.459346		288.157364		-0.120808		0.000000		0.288199		0.804851		54.855573		13.448140		10.957590		-1.684646		-5.162315		0.381026		1.275625		1.885003		-0.013906		0.002138		0.006551		-3.563257		-0.374152		4.448754		-0.351829		1.268303		1.873070		0.015682		0.001646		-0.019578		
1.133894		-42.415399		1315.995375		313.402688		0.128457		0.000000		0.297364		-0.980326		30.415901		7.243516		29.921619		1163.637871		263.331927		-0.122380		0.000000		0.290189		1.313697		51.097056		11.563604		11.001075		-1.773512		-5.111375		0.381041		1.275627		1.884964		-0.016145		0.002603		0.007501		-3.555021		-0.360395		4.415557		-0.351811		1.268295		1.873050		0.017683		0.001793		-0.021964		
